<svg xmlns="http://www.w3.org/2000/svg" fill="none" viewBox="0 0 26 26" id="logisticsTransfer">
  <path stroke="#000000" stroke-linecap="round" stroke-width=".75" d="M15.1224 16.0886V7.82592C15.1224 7.71546 15.0329 7.62592 14.9224 7.62592H5.2C5.08954 7.62592 5 7.71546 5 7.82592V15.8886C5 15.9991 5.08954 16.0886 5.2 16.0886H6.49676M15.1224 16.0886H9.40836M15.1224 16.0886H16.1567" class="colorStroke000000 svgStroke"></path>
  <circle cx="8.007" cy="16.565" r="1.434" stroke="#000000" stroke-linecap="round" stroke-width=".75" class="colorStroke000000 svgStroke"></circle>
  <path stroke="#000000" stroke-linecap="round" stroke-width=".75" d="M19.1823 16.5647C19.1823 17.3569 18.5401 17.9992 17.7479 17.9992 16.9557 17.9992 16.3135 17.3569 16.3135 16.5647 16.3135 15.7725 16.9557 15.1303 17.7479 15.1303 18.5401 15.1303 19.1823 15.7725 19.1823 16.5647zM15.1494 9.50354H18.9499C19.0226 9.50354 19.0895 9.54297 19.1248 9.60653L20.9745 12.9413C20.991 12.971 20.9997 13.0044 20.9997 13.0383V15.8887C20.9997 15.9991 20.9101 16.0887 20.7997 16.0887H19.2853" class="colorStroke000000 svgStroke"></path>
  <path fill="#7afb4a" stroke="#000000" stroke-linecap="round" stroke-width=".75" d="M16.4014 13.1079V10.8517C16.4014 10.7412 16.4909 10.6517 16.6014 10.6517H18.2184C18.2895 10.6517 18.3553 10.6894 18.3911 10.7508L19.7086 13.007C19.7864 13.1403 19.6903 13.3079 19.5359 13.3079H16.6014C16.4909 13.3079 16.4014 13.2183 16.4014 13.1079Z" class="colorfb4a55 svgShape colorStroke000000 svgStroke"></path>
  <path stroke="#000000" stroke-linecap="round" stroke-width=".75" d="M1.6226 12.6148C1.6226 6.30452 6.7381 1.18903 13.0484 1.18903 17.7699 1.18903 21.8226 4.05296 23.564 8.13843M1.6226 12.6148L2.83309 11.4043M1.6226 12.6148L.412109 11.4043M24.3774 13.3852C24.3774 19.6955 19.2619 24.811 12.9516 24.811 8.11924 24.811 3.98753 21.811 2.31726 17.5719M24.3774 13.3852L23.1669 14.5957M24.3774 13.3852L25.5879 14.5957" class="colorStroke000000 svgStroke"></path>
  <path fill="#7afb4a" fill-rule="evenodd" d="M10.5518 13.0314C11.0382 12.7183 11.3604 12.1721 11.3604 11.5506C11.3604 10.9291 11.0382 10.3829 10.5518 10.0698C10.0653 10.3829 9.74316 10.9291 9.74316 11.5506C9.74316 12.1721 10.0653 12.7183 10.5518 13.0314Z" clip-rule="evenodd" class="colorfb4a55 svgShape"></path>
  <path fill="#1d3016" d="M10.5518 13.0314L10.3488 13.3467C10.4724 13.4263 10.6311 13.4263 10.7547 13.3467L10.5518 13.0314ZM10.5518 10.0698L10.7547 9.75444C10.6311 9.67487 10.4724 9.67487 10.3488 9.75444L10.5518 10.0698ZM10.9854 11.5506C10.9854 12.0392 10.7325 12.4691 10.3488 12.7161L10.7547 13.3467C11.3438 12.9675 11.7354 12.3049 11.7354 11.5506H10.9854ZM10.3488 10.3851C10.7325 10.6321 10.9854 11.0619 10.9854 11.5506H11.7354C11.7354 10.7963 11.3438 10.1336 10.7547 9.75444L10.3488 10.3851ZM10.1182 11.5506C10.1182 11.0619 10.371 10.6321 10.7547 10.3851L10.3488 9.75444C9.75967 10.1336 9.36816 10.7963 9.36816 11.5506H10.1182ZM10.7547 12.7161C10.371 12.4691 10.1182 12.0392 10.1182 11.5506H9.36816C9.36816 12.3049 9.75967 12.9675 10.3488 13.3467L10.7547 12.7161Z" class="color000000 svgShape"></path>
  <path fill="#7afb4a" fill-rule="evenodd" d="M10.5782 13.073C11.1435 13.1956 11.7576 13.0371 12.197 12.5977C12.6365 12.1582 12.7949 11.5442 12.6723 10.9788C12.107 10.8562 11.4929 11.0147 11.0535 11.4541C10.614 11.8936 10.4556 12.5076 10.5782 13.073Z" clip-rule="evenodd" class="colorfb4a55 svgShape"></path>
  <path fill="#1d3016" d="M10.5782 13.073L10.2117 13.1524C10.2428 13.2961 10.355 13.4083 10.4987 13.4395L10.5782 13.073ZM12.6723 10.9788L13.0388 10.8994C13.0077 10.7557 12.8955 10.6435 12.7518 10.6123L12.6723 10.9788ZM11.9319 12.3325C11.5863 12.678 11.1036 12.8032 10.6576 12.7065L10.4987 13.4395C11.1834 13.5879 11.9288 13.3962 12.4622 12.8628L11.9319 12.3325ZM12.3059 11.0583C12.4026 11.5043 12.2774 11.987 11.9319 12.3325L12.4622 12.8628C12.9956 12.3294 13.1873 11.5841 13.0388 10.8994L12.3059 11.0583ZM11.3187 11.7193C11.6642 11.3738 12.1469 11.2486 12.5929 11.3453L12.7518 10.6123C12.0671 10.4639 11.3217 10.6556 10.7883 11.189L11.3187 11.7193ZM10.9447 12.9935C10.848 12.5475 10.9731 12.0648 11.3187 11.7193L10.7883 11.189C10.255 11.7223 10.0632 12.4677 10.2117 13.1524L10.9447 12.9935Z" class="color000000 svgShape"></path>
  <path fill="#7afb4a" fill-rule="evenodd" d="M10.5781 13.073C10.7006 12.5077 10.5422 11.8936 10.1027 11.4542C9.66327 11.0147 9.04922 10.8563 8.48387 10.9788C8.36131 11.5442 8.51975 12.1582 8.9592 12.5977C9.39865 13.0371 10.0127 13.1956 10.5781 13.073Z" clip-rule="evenodd" class="colorfb4a55 svgShape"></path>
  <path fill="#1d3016" d="M10.5781 13.073L10.6575 13.4395C10.8012 13.4084 10.9134 13.2961 10.9445 13.1525L10.5781 13.073ZM8.48387 10.9788L8.40442 10.6123C8.26075 10.6435 8.14853 10.7557 8.11739 10.8994L8.48387 10.9788ZM9.83756 11.7193C10.1831 12.0649 10.3083 12.5476 10.2116 12.9936L10.9445 13.1525C11.093 12.4678 10.9013 11.7224 10.3679 11.189L9.83756 11.7193ZM8.56332 11.3453C9.00932 11.2486 9.49203 11.3738 9.83756 11.7193L10.3679 11.189C9.83451 10.6556 9.08913 10.4639 8.40442 10.6123L8.56332 11.3453ZM9.22437 12.3325C8.87884 11.987 8.75367 11.5043 8.85036 11.0583L8.11739 10.8994C7.96894 11.5841 8.16066 12.3295 8.69404 12.8629L9.22437 12.3325ZM10.4986 12.7065C10.0526 12.8032 9.56989 12.6781 9.22437 12.3325L8.69404 12.8629C9.22741 13.3962 9.9728 13.5879 10.6575 13.4395L10.4986 12.7065Z" class="color000000 svgShape"></path>
</svg>
